#N canvas 870 64 830 773 10;
#X msg 179 268 create;
#X msg 230 268 destroy;
#X obj 275 564 gemhead;
#X floatatom 326 131 10 0 0 0 - - -;
#X obj 326 427 select 0 1 2;
#X obj 339 700 circle;
#X obj 402 700 triangle;
#X obj 339 564 gemhead;
#X obj 402 564 gemhead;
#X msg 275 512 1;
#X msg 304 512 0;
#X msg 339 512 1;
#X msg 368 512 0;
#X msg 402 512 1;
#X msg 431 512 0;
#X obj 447 674 r s;
#X obj 275 700 square;
#X obj 326 202 * 2;
#X floatatom 326 402 1 0 0 0 - - -;
#X obj 383 379 + 1;
#X obj 326 379 int;
#X msg 326 355 bang;
#X obj 355 379 % 3;
#X obj 326 180 cos;
#X obj 108 379 random 256;
#X obj 174 379 random 256;
#X obj 240 379 random 256;
#X floatatom 108 402 5 0 0 0 - - -;
#X floatatom 174 402 5 0 0 0 - - -;
#X floatatom 240 402 5 0 0 0 - - -;
#X obj 140 487 list append;
#X obj 108 453 list append 0 0;
#X obj 140 517 s c;
#X obj 302 617 r c;
#X obj 275 639 color;
#X obj 108 426 / 255;
#X obj 174 425 / 255;
#X obj 240 425 / 255;
#X obj 366 618 r c;
#X obj 339 640 color;
#X obj 429 619 r c;
#X obj 402 641 color;
#X obj 372 674 r s;
#X obj 308 674 r s;
#X text 352 200 choose between -2 and 2;
#X floatatom 326 247 5 0 0 0 - - -;
#X obj 326 268 s s;
#X obj 326 226 + 2;
#X text 352 224 shift to the range 0 to 4;
#X obj 326 156 / 57.2958;
#X text 388 155 convert degrees to radians;
#X obj 326 306 r s;
#X obj 326 331 select 0;
#X obj 402 85 + 1;
#X obj 326 85 int;
#X obj 326 60 metro 1;
#X obj 355 85 % 1800;
#X obj 326 108 / 5;
#X text 429 79 increment by 1 from 0 to 1799 I chose 1800 because it
gave smoother movement than 0 to 360;
#X text 354 263 we do a signal here \, because we use the size in more
than one place.;
#X text 386 329 change the shape and color when the size is 0;
#X text 410 424 switch between the three shapes in order;
#X obj 145 298 gemwin 60;
#X msg 326 29 bang;
#X msg 370 29 stop;
#X obj 145 238 r start;
#X obj 196 238 r stop;
#X obj 326 -1 r start;
#X msg 145 268 1;
#X obj 376 -1 r stop;
#X obj 75 8 cnv 15 180 140 empty empty empty 20 12 0 14 -260097 -66577
0;
#X obj 89 124 s start;
#X obj 185 124 s stop;
#X obj 89 73 bng 30 250 50 0 empty empty Start 32 17 0 10 -261682 -1
-1;
#X obj 185 72 bng 30 250 50 0 empty empty Stop 33 17 0 10 -261682 -1
-1;
#X text 87 34 Author: Joel Verhagen;
#X text 88 49 Date: 2012-02-28;
#X text 225 717 draw the shapes with the specified colors and sizes
;
#X text 63 535 send the randomly generated color;
#X text 463 511 only enable a single shape at a time;
#X text 87 11 Shapes and Colors;
#X text -17 401 Current Color (RGB):;
#X connect 0 0 62 0;
#X connect 1 0 62 0;
#X connect 2 0 34 0;
#X connect 3 0 49 0;
#X connect 4 0 9 0;
#X connect 4 0 12 0;
#X connect 4 0 14 0;
#X connect 4 1 11 0;
#X connect 4 1 10 0;
#X connect 4 1 14 0;
#X connect 4 2 13 0;
#X connect 4 2 10 0;
#X connect 4 2 12 0;
#X connect 7 0 39 0;
#X connect 8 0 41 0;
#X connect 9 0 2 0;
#X connect 10 0 2 0;
#X connect 11 0 7 0;
#X connect 12 0 7 0;
#X connect 13 0 8 0;
#X connect 14 0 8 0;
#X connect 15 0 6 1;
#X connect 17 0 47 0;
#X connect 18 0 4 0;
#X connect 19 0 22 0;
#X connect 20 0 19 0;
#X connect 20 0 18 0;
#X connect 21 0 20 0;
#X connect 22 0 20 1;
#X connect 23 0 17 0;
#X connect 24 0 27 0;
#X connect 25 0 28 0;
#X connect 26 0 29 0;
#X connect 27 0 35 0;
#X connect 28 0 36 0;
#X connect 29 0 37 0;
#X connect 30 0 32 0;
#X connect 31 0 30 0;
#X connect 33 0 34 1;
#X connect 34 0 16 0;
#X connect 35 0 31 0;
#X connect 36 0 31 1;
#X connect 37 0 30 1;
#X connect 38 0 39 1;
#X connect 39 0 5 0;
#X connect 40 0 41 1;
#X connect 41 0 6 0;
#X connect 42 0 5 1;
#X connect 43 0 16 1;
#X connect 45 0 46 0;
#X connect 47 0 45 0;
#X connect 49 0 23 0;
#X connect 51 0 52 0;
#X connect 52 0 21 0;
#X connect 52 0 24 0;
#X connect 52 0 25 0;
#X connect 52 0 26 0;
#X connect 53 0 56 0;
#X connect 54 0 53 0;
#X connect 54 0 57 0;
#X connect 55 0 54 0;
#X connect 56 0 54 1;
#X connect 57 0 3 0;
#X connect 63 0 55 0;
#X connect 64 0 55 0;
#X connect 65 0 0 0;
#X connect 65 0 68 0;
#X connect 66 0 1 0;
#X connect 67 0 63 0;
#X connect 68 0 62 0;
#X connect 69 0 64 0;
#X connect 73 0 71 0;
#X connect 74 0 72 0;
